<mxfile host="app.diagrams.net" modified="2021-04-26T14:15:34.712Z" agent="5.0 (Macintosh; Intel Mac OS X 10_14_6) AppleWebKit/537.36 (KHTML, like Gecko) Chrome/90.0.4430.85 Safari/537.36" etag="SyWJQfT2EIPfJ8_EvOwk" version="14.6.6" type="github">
  <diagram id="yHAvbG_NU4-hKGBVdA15" name="Page-1">
    <mxGraphModel dx="946" dy="591" grid="1" gridSize="10" guides="1" tooltips="1" connect="1" arrows="1" fold="1" page="1" pageScale="1" pageWidth="827" pageHeight="1169" math="0" shadow="0">
      <root>
        <mxCell id="0" />
        <mxCell id="1" parent="0" />
        <mxCell id="ME6OeIDKpz1PLXDWw8Im-15" style="edgeStyle=orthogonalEdgeStyle;rounded=0;orthogonalLoop=1;jettySize=auto;html=1;entryX=0;entryY=0.5;entryDx=0;entryDy=0;" edge="1" parent="1" source="ME6OeIDKpz1PLXDWw8Im-1" target="ME6OeIDKpz1PLXDWw8Im-2">
          <mxGeometry relative="1" as="geometry">
            <Array as="points">
              <mxPoint x="220" y="480" />
              <mxPoint x="220" y="250" />
            </Array>
          </mxGeometry>
        </mxCell>
        <mxCell id="ME6OeIDKpz1PLXDWw8Im-16" style="edgeStyle=orthogonalEdgeStyle;rounded=0;orthogonalLoop=1;jettySize=auto;html=1;" edge="1" parent="1" source="ME6OeIDKpz1PLXDWw8Im-1" target="ME6OeIDKpz1PLXDWw8Im-3">
          <mxGeometry relative="1" as="geometry" />
        </mxCell>
        <mxCell id="ME6OeIDKpz1PLXDWw8Im-17" style="edgeStyle=orthogonalEdgeStyle;rounded=0;orthogonalLoop=1;jettySize=auto;html=1;entryX=0;entryY=0.5;entryDx=0;entryDy=0;" edge="1" parent="1" source="ME6OeIDKpz1PLXDWw8Im-1" target="ME6OeIDKpz1PLXDWw8Im-4">
          <mxGeometry relative="1" as="geometry" />
        </mxCell>
        <mxCell id="ME6OeIDKpz1PLXDWw8Im-1" value="JAVA 对象" style="rounded=0;whiteSpace=wrap;html=1;" vertex="1" parent="1">
          <mxGeometry x="80" y="450" width="120" height="60" as="geometry" />
        </mxCell>
        <mxCell id="ME6OeIDKpz1PLXDWw8Im-18" style="edgeStyle=orthogonalEdgeStyle;rounded=0;orthogonalLoop=1;jettySize=auto;html=1;entryX=0;entryY=0.5;entryDx=0;entryDy=0;" edge="1" parent="1" source="ME6OeIDKpz1PLXDWw8Im-2" target="ME6OeIDKpz1PLXDWw8Im-5">
          <mxGeometry relative="1" as="geometry">
            <Array as="points">
              <mxPoint x="370" y="250" />
              <mxPoint x="370" y="130" />
            </Array>
          </mxGeometry>
        </mxCell>
        <mxCell id="ME6OeIDKpz1PLXDWw8Im-21" style="edgeStyle=orthogonalEdgeStyle;rounded=0;orthogonalLoop=1;jettySize=auto;html=1;entryX=0;entryY=0.5;entryDx=0;entryDy=0;" edge="1" parent="1" source="ME6OeIDKpz1PLXDWw8Im-2" target="ME6OeIDKpz1PLXDWw8Im-14">
          <mxGeometry relative="1" as="geometry">
            <Array as="points">
              <mxPoint x="370" y="250" />
              <mxPoint x="370" y="370" />
            </Array>
          </mxGeometry>
        </mxCell>
        <mxCell id="ME6OeIDKpz1PLXDWw8Im-2" value="对象头" style="rounded=0;whiteSpace=wrap;html=1;" vertex="1" parent="1">
          <mxGeometry x="240" y="220" width="120" height="60" as="geometry" />
        </mxCell>
        <mxCell id="ME6OeIDKpz1PLXDWw8Im-3" value="实例数据&lt;br&gt;存放各种字段" style="rounded=0;whiteSpace=wrap;html=1;" vertex="1" parent="1">
          <mxGeometry x="240" y="450" width="120" height="60" as="geometry" />
        </mxCell>
        <mxCell id="ME6OeIDKpz1PLXDWw8Im-4" value="对齐填充&lt;br&gt;占位符" style="rounded=0;whiteSpace=wrap;html=1;" vertex="1" parent="1">
          <mxGeometry x="240" y="610" width="120" height="60" as="geometry" />
        </mxCell>
        <mxCell id="ME6OeIDKpz1PLXDWw8Im-25" style="edgeStyle=orthogonalEdgeStyle;rounded=0;orthogonalLoop=1;jettySize=auto;html=1;" edge="1" parent="1" source="ME6OeIDKpz1PLXDWw8Im-5">
          <mxGeometry relative="1" as="geometry">
            <mxPoint x="540" y="130" as="targetPoint" />
          </mxGeometry>
        </mxCell>
        <mxCell id="ME6OeIDKpz1PLXDWw8Im-5" value="运行时&lt;br&gt;元数据" style="rounded=0;whiteSpace=wrap;html=1;" vertex="1" parent="1">
          <mxGeometry x="390" y="100" width="120" height="60" as="geometry" />
        </mxCell>
        <mxCell id="ME6OeIDKpz1PLXDWw8Im-7" value="哈希值&lt;br&gt;首地址值" style="rounded=0;whiteSpace=wrap;html=1;" vertex="1" parent="1">
          <mxGeometry x="570" y="20" width="120" height="60" as="geometry" />
        </mxCell>
        <mxCell id="ME6OeIDKpz1PLXDWw8Im-8" value="GC 分代年龄" style="rounded=0;whiteSpace=wrap;html=1;" vertex="1" parent="1">
          <mxGeometry x="570" y="110" width="120" height="60" as="geometry" />
        </mxCell>
        <mxCell id="ME6OeIDKpz1PLXDWw8Im-9" value="锁状态标识&lt;br&gt;同步中，判断对象是否是锁" style="rounded=0;whiteSpace=wrap;html=1;" vertex="1" parent="1">
          <mxGeometry x="570" y="200" width="120" height="60" as="geometry" />
        </mxCell>
        <mxCell id="ME6OeIDKpz1PLXDWw8Im-10" value="线程持有的锁" style="rounded=0;whiteSpace=wrap;html=1;" vertex="1" parent="1">
          <mxGeometry x="720" y="20" width="120" height="60" as="geometry" />
        </mxCell>
        <mxCell id="ME6OeIDKpz1PLXDWw8Im-11" value="线程偏向 ID" style="rounded=0;whiteSpace=wrap;html=1;" vertex="1" parent="1">
          <mxGeometry x="720" y="110" width="120" height="60" as="geometry" />
        </mxCell>
        <mxCell id="ME6OeIDKpz1PLXDWw8Im-12" value="偏向时间戳" style="rounded=0;whiteSpace=wrap;html=1;" vertex="1" parent="1">
          <mxGeometry x="720" y="200" width="120" height="60" as="geometry" />
        </mxCell>
        <mxCell id="ME6OeIDKpz1PLXDWw8Im-13" value="如果对象是数组，则还需记录数组长度" style="rounded=0;whiteSpace=wrap;html=1;" vertex="1" parent="1">
          <mxGeometry x="590" y="280" width="230" height="40" as="geometry" />
        </mxCell>
        <mxCell id="ME6OeIDKpz1PLXDWw8Im-14" value="类型指针&lt;br&gt;指向该对象对应的类型" style="rounded=0;whiteSpace=wrap;html=1;" vertex="1" parent="1">
          <mxGeometry x="390" y="340" width="130" height="60" as="geometry" />
        </mxCell>
        <mxCell id="ME6OeIDKpz1PLXDWw8Im-24" value="" style="endArrow=none;dashed=1;html=1;dashPattern=1 3;strokeWidth=2;" edge="1" parent="1">
          <mxGeometry width="50" height="50" relative="1" as="geometry">
            <mxPoint x="860" y="10" as="sourcePoint" />
            <mxPoint x="860" y="10" as="targetPoint" />
            <Array as="points">
              <mxPoint x="550" y="10" />
              <mxPoint x="540" y="200" />
              <mxPoint x="570" y="330" />
              <mxPoint x="670" y="370" />
              <mxPoint x="820" y="340" />
              <mxPoint x="870" y="220" />
            </Array>
          </mxGeometry>
        </mxCell>
      </root>
    </mxGraphModel>
  </diagram>
</mxfile>
